<svg xmlns="http://www.w3.org/2000/svg" width="44" height="53" viewBox="0 0 44 53">
  <metadata><?xpacket begin="﻿" id="W5M0MpCehiHzreSzNTczkc9d"?>
<x:xmpmeta xmlns:x="adobe:ns:meta/" x:xmptk="Adobe XMP Core 5.6-c138 79.159824, 2016/09/14-01:09:01        ">
   <rdf:RDF xmlns:rdf="http://www.w3.org/1999/02/22-rdf-syntax-ns#">
      <rdf:Description rdf:about=""/>
   </rdf:RDF>
</x:xmpmeta>
                                                                                                    
                                                                                                    
                                                                                                    
                                                                                                    
                                                                                                    
                                                                                                    
                                                                                                    
                                                                                                    
                                                                                                    
                                                                                                    
                                                                                                    
                                                                                                    
                                                                                                    
                                                                                                    
                                                                                                    
                                                                                                    
                                                                                                    
                                                                                                    
                                                                                                    
                                                                                                    
                           
<?xpacket end="w"?></metadata>
<defs>
    <style>
      .cls-1 {
        fill: #0773b9;
        fill-rule: evenodd;
      }
    </style>
  </defs>
  <path id="Disinfection" class="cls-1" d="M790.571,2415.31h-3.142v4.56a22.155,22.155,0,0,1,15.714,0v-4.56H800v-3.2h10.629l5.954,2.94,1.406-2.78-6.618-3.27H785.857v3.11h4.714v3.2Zm4.715,18.64a7.761,7.761,0,1,0,7.857,7.76A7.816,7.816,0,0,0,795.286,2433.95Zm4.714,9.31h-3.143v3.11h-3.143v-3.11h-3.143v-3.1h3.143v-3.11h3.143v3.11H800v3.1Zm2.167-20.44a19,19,0,0,0-13.762,0,16.633,16.633,0,0,0-10.4,15.79c0,9.4,3.06,21.7,3.189,22.21l0.3,1.18h27.6l0.3-1.18c0.128-.51,3.188-12.81,3.188-22.21a16.633,16.633,0,0,0-10.4-15.79h0Zm-6.881,29.76a10.871,10.871,0,1,1,11-10.87A10.951,10.951,0,0,1,795.286,2452.58Zm23.292-33.49-1.292-1.85-1.292,1.85c-1.029,1.47-3.423,5.11-3.423,7.09a4.715,4.715,0,0,0,9.429,0c0-1.98-2.394-5.62-3.422-7.09h0Z" transform="translate(-778 -2409)"/>
</svg>
