<svg xmlns="http://www.w3.org/2000/svg" width="64.812" height="42.32" viewBox="0 0 64.812 42.32">
  <metadata><?xpacket begin="﻿" id="W5M0MpCehiHzreSzNTczkc9d"?>
<x:xmpmeta xmlns:x="adobe:ns:meta/" x:xmptk="Adobe XMP Core 5.6-c138 79.159824, 2016/09/14-01:09:01        ">
   <rdf:RDF xmlns:rdf="http://www.w3.org/1999/02/22-rdf-syntax-ns#">
      <rdf:Description rdf:about=""/>
   </rdf:RDF>
</x:xmpmeta>
                                                                                                    
                                                                                                    
                                                                                                    
                                                                                                    
                                                                                                    
                                                                                                    
                                                                                                    
                                                                                                    
                                                                                                    
                                                                                                    
                                                                                                    
                                                                                                    
                                                                                                    
                                                                                                    
                                                                                                    
                                                                                                    
                                                                                                    
                                                                                                    
                                                                                                    
                                                                                                    
                           
<?xpacket end="w"?></metadata>
<defs>
    <style>
      .cls-1 {
        fill: #0773b9;
        fill-rule: evenodd;
      }
    </style>
  </defs>
  <path id="Face_Mask" data-name="Face Mask" class="cls-1" d="M437.705,1737.89h-3.8c-4.909,0-7.416-2.42-10.175-5.21-2.929-2.97-6.252-6.33-12.733-6.33s-9.8,3.36-12.733,6.33c-2.759,2.79-5.266,5.21-10.175,5.21h-3.8a5.732,5.732,0,0,0-5.695,5.76,17.33,17.33,0,0,0,16.481,17.21c3.676,4.41,8.783,7.79,15.919,7.79,7.121,0,12.222-3.37,15.9-7.76a17.305,17.305,0,0,0,16.5-17.24,5.732,5.732,0,0,0-5.695-5.76h0Zm-55.308,5.76a1.91,1.91,0,0,1,1.9-1.92H386.5a51.273,51.273,0,0,0,5.535,14.76A13.521,13.521,0,0,1,382.4,1743.65Zm22.908-5.77,11.39,0.01v3.84h-11.39v-3.85Zm11.39,19.23h-11.39v-3.84H416.7v3.84Zm7.594-7.69H397.711v-3.84h26.578v3.84Zm5.675,7.07a51.273,51.273,0,0,0,5.535-14.76h2.206a1.91,1.91,0,0,1,1.9,1.92A13.521,13.521,0,0,1,429.964,1756.49Z" transform="translate(-378.594 -1726.34)"/>
</svg>
