<svg xmlns="http://www.w3.org/2000/svg" width="32" height="62" viewBox="0 0 32 62">
  <metadata><?xpacket begin="﻿" id="W5M0MpCehiHzreSzNTczkc9d"?>
<x:xmpmeta xmlns:x="adobe:ns:meta/" x:xmptk="Adobe XMP Core 5.6-c138 79.159824, 2016/09/14-01:09:01        ">
   <rdf:RDF xmlns:rdf="http://www.w3.org/1999/02/22-rdf-syntax-ns#">
      <rdf:Description rdf:about=""/>
   </rdf:RDF>
</x:xmpmeta>
                                                                                                    
                                                                                                    
                                                                                                    
                                                                                                    
                                                                                                    
                                                                                                    
                                                                                                    
                                                                                                    
                                                                                                    
                                                                                                    
                                                                                                    
                                                                                                    
                                                                                                    
                                                                                                    
                                                                                                    
                                                                                                    
                                                                                                    
                                                                                                    
                                                                                                    
                                                                                                    
                           
<?xpacket end="w"?></metadata>
<defs>
    <style>
      .cls-1 {
        fill: #0773b9;
        fill-rule: evenodd;
      }
    </style>
  </defs>
  <path id="Hand_Luggage" data-name="Hand Luggage" class="cls-1" d="M1172,1507.4v7.38c0,3.1,2.45,8.72,5.46,8.72h1.01v2.32a2.116,2.116,0,1,0,4.23,0v-2.32h10.6v2.32a2.116,2.116,0,1,0,4.23,0v-2.32h1.01c3.01,0,5.46-5.62,5.46-8.72v-7.38h-32Zm27.61-20.35v-13.88a7.085,7.085,0,0,0-6.97-7.17h-9.28a7.085,7.085,0,0,0-6.97,7.17v13.88a5.588,5.588,0,0,0-4.39,5.51v10.48h32v-10.48A5.588,5.588,0,0,0,1199.61,1487.05Zm-4.24-.11h-14.74v-13.77a2.771,2.771,0,0,1,2.73-2.81h9.28a2.771,2.771,0,0,1,2.73,2.81v13.77Z" transform="translate(-1172 -1466)"/>
</svg>
