<svg xmlns="http://www.w3.org/2000/svg" width="66" height="50" viewBox="0 0 66 50">
  <metadata><?xpacket begin="﻿" id="W5M0MpCehiHzreSzNTczkc9d"?>
<x:xmpmeta xmlns:x="adobe:ns:meta/" x:xmptk="Adobe XMP Core 5.6-c138 79.159824, 2016/09/14-01:09:01        ">
   <rdf:RDF xmlns:rdf="http://www.w3.org/1999/02/22-rdf-syntax-ns#">
      <rdf:Description rdf:about=""/>
   </rdf:RDF>
</x:xmpmeta>
                                                                                                    
                                                                                                    
                                                                                                    
                                                                                                    
                                                                                                    
                                                                                                    
                                                                                                    
                                                                                                    
                                                                                                    
                                                                                                    
                                                                                                    
                                                                                                    
                                                                                                    
                                                                                                    
                                                                                                    
                                                                                                    
                                                                                                    
                                                                                                    
                                                                                                    
                                                                                                    
                           
<?xpacket end="w"?></metadata>
<defs>
    <style>
      .cls-1 {
        fill: #0773b9;
        fill-rule: evenodd;
      }
    </style>
  </defs>
  <path id="Physical_Distance" data-name="Physical Distance" class="cls-1" d="M1160.34,2450.38a9.241,9.241,0,0,1-1.98-.22l1.09,10.1a1.931,1.931,0,0,0,1.92,1.74h8.14a1.931,1.931,0,0,0,1.92-1.74l1.09-10.1a9.149,9.149,0,0,1-1.97.22h-10.21Zm38.87,6.05-2-1.71a1.935,1.935,0,0,0-2.73.23,1.99,1.99,0,0,0-.44,1.01h-12.08a1.99,1.99,0,0,0-.44-1.01,1.935,1.935,0,0,0-2.73-.23l-2,1.71a1.961,1.961,0,0,0,0,2.97l2,1.7a1.927,1.927,0,0,0,1.25.47,1.958,1.958,0,0,0,1.48-.69,2.022,2.022,0,0,0,.44-1.02h12.08a2.022,2.022,0,0,0,.44,1.02,1.958,1.958,0,0,0,1.48.69,1.927,1.927,0,0,0,1.25-.47l2-1.7A1.961,1.961,0,0,0,1199.21,2456.43Zm-25.27-30.91a10.67,10.67,0,0,1-17,0,5.413,5.413,0,0,0-1.94,4.16v11.4a5.371,5.371,0,0,0,5.34,5.4h10.21a5.369,5.369,0,0,0,5.33-5.4v-11.4a5.381,5.381,0,0,0-1.94-4.16h0Zm-8.5.32a6.92,6.92,0,1,0-6.87-6.92A6.9,6.9,0,0,0,1165.44,2425.84Zm40.01,24.54a9.149,9.149,0,0,1-1.97-.22l1.09,10.1a1.931,1.931,0,0,0,1.92,1.74h8.14a1.931,1.931,0,0,0,1.92-1.74l1.09-10.1a9.241,9.241,0,0,1-1.98.22h-10.21Zm13.61-24.86a10.67,10.67,0,0,1-17,0,5.381,5.381,0,0,0-1.94,4.16v11.4a5.369,5.369,0,0,0,5.33,5.4h10.21a5.371,5.371,0,0,0,5.34-5.4v-11.4a5.413,5.413,0,0,0-1.94-4.16h0Zm-8.5.32a6.92,6.92,0,1,0-6.87-6.92A6.9,6.9,0,0,0,1210.56,2425.84Z" transform="translate(-1155 -2412)"/>
</svg>
